<?xml version="1.0" standalone="no"?>
<!DOCTYPE svg PUBLIC "-//W3C//DTD SVG 20010904//EN"
 "http://www.w3.org/TR/2001/REC-SVG-20010904/DTD/svg10.dtd">
<svg version="1.0" xmlns="http://www.w3.org/2000/svg"
 width="200.000000pt" height="24.000000pt" viewBox="0 0 200.000000 24.000000"
 preserveAspectRatio="xMidYMid meet">

<g transform="translate(0.000000,24.000000) scale(0.100000,-0.100000)"
fill="#000000" stroke="none">
<path d="M300 120 c0 -67 4 -110 10 -110 6 0 10 43 10 110 0 67 -4 110 -10
110 -6 0 -10 -43 -10 -110z"/>
<path d="M382 179 c-48 -56 -48 -56 16 -129 56 -63 63 -45 9 21 l-45 54 45 53
c24 28 39 52 31 51 -7 0 -32 -23 -56 -50z"/>
<path d="M546 222 c-6 -9 -76 -202 -76 -208 0 -2 4 -4 9 -4 4 0 23 41 41 91
18 50 36 87 40 82 4 -4 20 -45 35 -90 14 -46 31 -83 37 -83 6 0 8 6 6 12 -3 7
-20 57 -38 111 -31 91 -42 108 -54 89z"/>
<path d="M680 120 c0 -67 4 -110 10 -110 6 0 10 40 10 100 l0 100 30 0 c29 0
70 -29 70 -49 0 -15 -30 -41 -46 -41 -19 0 -18 -4 13 -58 33 -58 32 -57 39
-50 3 3 -4 25 -16 47 -17 34 -18 42 -6 47 8 3 19 18 26 34 22 52 -16 90 -89
90 l-41 0 0 -110z"/>
<path d="M860 120 c0 -67 4 -110 10 -110 6 0 10 36 10 88 l1 87 28 -65 c15
-36 34 -66 42 -68 9 -1 23 20 38 55 13 32 28 62 33 68 4 5 8 -30 8 -78 0 -53
4 -87 10 -87 15 0 9 212 -6 217 -6 2 -27 -34 -47 -79 -33 -77 -36 -81 -45 -58
-29 75 -62 140 -71 140 -7 0 -11 -40 -11 -110z"/>
<path d="M1155 218 c-2 -7 -20 -57 -40 -111 -19 -54 -30 -97 -23 -95 6 2 25
43 41 91 17 48 33 87 37 87 3 0 19 -40 35 -90 16 -50 33 -90 38 -90 12 0 4 29
-34 135 -29 81 -44 101 -54 73z"/>
</g>
</svg>
